<svg xmlns="http://www.w3.org/2000/svg" xmlns:xlink="http://www.w3.org/1999/xlink" viewBox="0 0 640 640" width="640" height="640"><defs><path d="M319.71-.02C142.97-.02-.3 143.25-.3 319.99-.3 496.73 142.97 640 319.71 640c176.74 0 320.01-143.27 320.01-320.01C639.72 143.25 496.45-.02 319.71-.02z" id="a"/><path d="M129.41 288.47l1.31.17 1.29.22 1.27.28 1.25.35 1.22.4 1.2.45 1.17.51 1.13.57 1.11.61 1.08.66 1.04.71 1 .76.97.8.93.85.89.89.85.92.81.97.76 1 .71 1.04.67 1.08.61 1.1.57 1.14.51 1.17.46 1.19.4 1.22.35 1.25.29 1.27.22 1.29.17 1.31.1 1.33.04 1.35v.07l-.03 1.35-.1 1.33-.16 1.32-.23 1.29-.28 1.27-.35 1.25-.4 1.23-.45 1.19-.52 1.17-.56 1.15-.61 1.1-.67 1.08-.71 1.04-.76 1.01-.81.97-.85.93-.89.89-.93.85-.97.8-1 .76-1.05.72-1.07.66-1.11.62-1.14.56-1.17.51-1.2.46-1.22.4-1.25.34-1.28.29-1.29.22-1.31.16-1.34.1-1.35.04-1.35-.04-1.33-.1-1.32-.16-1.29-.22-1.27-.29-1.25-.34-1.23-.4-1.2-.46-1.17-.51-1.14-.56-1.11-.62-1.07-.66-1.04-.72-1.01-.76-.97-.8-.93-.85-.89-.89-.85-.93-.8-.97-.76-1.01-.72-1.04-.66-1.08-.62-1.1-.56-1.14-.51-1.17-.46-1.2-.4-1.23-.34-1.25-.29-1.27-.22-1.29-.17-1.32-.09-1.33-.04-1.35.04-1.35.09-1.34.17-1.31.22-1.29.29-1.28.34-1.25.4-1.22.46-1.2.51-1.17.56-1.14.62-1.11.66-1.08.72-1.04.76-1 .8-.97.85-.93.89-.89.93-.85.97-.81 1.01-.76 1.04-.71 1.07-.67 1.11-.61 1.14-.56 1.17-.52 1.2-.45 1.23-.4 1.25-.35 1.27-.28 1.29-.23 1.32-.16 1.33-.1 1.35-.03 1.35.03 1.33.1zm-5.36 14.9l-1.25.34-1.19.47-1.13.59-1.05.7-.98.79-.88.89-.8.98-.69 1.06-.58 1.13-.47 1.19-.34 1.25-.21 1.3-.07 1.34.08 1.34.21 1.3.35 1.24.47 1.19.58 1.13.7 1.05.8.98.89.89.98.79 1.05.69 1.13.59 1.19.46 1.25.34 1.3.21 1.34.07v-.12l1.33-.07 1.29-.2 1.24-.34 1.18-.46 1.12-.58 1.05-.69.97-.78.89-.88.8-.96.69-1.05.59-1.11.47-1.18.35-1.24.22-1.28.08-1.33v-.05l-.07-1.34-.22-1.29-.34-1.25-.47-1.19-.59-1.13-.69-1.05-.8-.98-.89-.89-.98-.79-1.06-.69-1.12-.58-1.2-.47-1.25-.34-1.29-.21-1.34-.07-1.34.07-1.3.22z" id="b"/><path d="M198.22 288.47l1.31.17 1.29.22 1.27.28 1.25.35 1.22.4 1.2.45 1.17.51 1.13.57 1.11.61 1.08.66 1.04.71 1 .76.97.8.93.85.89.89.85.92.81.97.76 1 .71 1.04.66 1.08.62 1.1.57 1.14.51 1.17.46 1.19.4 1.22.35 1.25.29 1.27.22 1.29.17 1.31.1 1.33.04 1.35v.07l-.03 1.35-.1 1.33-.16 1.32-.23 1.29-.28 1.27-.35 1.25-.4 1.23-.45 1.19-.52 1.17-.56 1.15-.62 1.1-.66 1.08-.71 1.04-.76 1.01-.81.97-.85.93-.89.89-.93.85-.97.8-1 .76-1.05.72-1.07.66-1.11.62-1.14.56-1.17.51-1.2.46-1.22.4-1.25.34-1.28.29-1.29.22-1.32.16-1.33.1-1.35.04-1.35-.04-1.33-.1-1.32-.16-1.29-.22-1.27-.29-1.25-.34-1.23-.4-1.2-.46-1.17-.51-1.14-.56-1.11-.62-1.07-.66-1.04-.72-1.01-.76-.97-.8-.93-.85-.89-.89-.85-.93-.8-.97-.76-1.01-.72-1.04-.66-1.08-.62-1.1-.56-1.14-.51-1.17-.46-1.2-.4-1.23-.34-1.25-.29-1.27-.22-1.29-.17-1.32-.09-1.33-.04-1.35.04-1.35.09-1.34.17-1.31.22-1.29.29-1.28.34-1.25.4-1.22.46-1.2.51-1.17.56-1.14.62-1.11.66-1.08.72-1.04.76-1 .8-.97.85-.93.89-.89.93-.85.97-.81 1.01-.76 1.04-.71 1.07-.67 1.11-.61 1.14-.56 1.17-.52 1.2-.45 1.23-.4 1.25-.35 1.27-.28 1.29-.23 1.32-.16 1.33-.1 1.35-.03 1.35.03 1.33.1zm-5.36 14.9l-1.25.34-1.19.47-1.13.59-1.05.7-.98.79-.88.89-.8.98-.69 1.06-.58 1.13-.47 1.19-.34 1.25-.21 1.3-.07 1.34.08 1.34.21 1.3.35 1.24.47 1.19.58 1.13.7 1.05.8.98.89.89.98.79 1.05.69 1.13.59 1.19.46 1.25.34 1.3.21 1.34.07v-.12l1.33-.07 1.29-.2 1.24-.34 1.18-.46 1.12-.58 1.05-.69.97-.78.89-.88.79-.96.7-1.05.59-1.11.47-1.18.35-1.24.22-1.28.08-1.33v-.05l-.07-1.34-.22-1.29-.34-1.25-.47-1.19-.59-1.13-.69-1.05-.8-.98-.89-.89-.98-.79-1.06-.69-1.13-.58-1.19-.47-1.25-.34-1.3-.21-1.34-.07-1.33.07-1.3.22z" id="c"/><path d="M446.56 288.48l1.32.16 1.29.23 1.27.28 1.25.35 1.22.4 1.2.46 1.17.51 1.14.56 1.1.62 1.08.66 1.04.72 1.01.76.96.8.93.85.89.89.85.93.8.97.76 1.01.72 1.04.66 1.07.62 1.11.56 1.14.51 1.17.46 1.2.4 1.22.34 1.25.29 1.27.22 1.29.16 1.32.1 1.33.04 1.35v.02l-.04 1.35-.1 1.33-.16 1.32-.22 1.29-.29 1.28-.34 1.24-.41 1.23-.46 1.2-.51 1.17-.56 1.14-.62 1.1-.66 1.08-.72 1.04-.76 1.01-.8.97-.85.93-.89.89-.94.84-.97.81-1 .76-1.05.71-1.07.66-1.11.62-1.14.56-1.17.51-1.2.46-1.23.4-1.25.34-1.27.28-1.29.23-1.32.16-1.33.09-1.35.04-1.35-.04-1.34-.1-1.31-.16-1.3-.23-1.27-.28-1.25-.35-1.22-.4-1.2-.46-1.17-.51-1.14-.56-1.11-.62-1.07-.67-1.05-.71-1-.76-.97-.81-.93-.85-.89-.89-.85-.93-.8-.97-.76-1-.71-1.05-.67-1.08-.61-1.11-.56-1.14-.51-1.17-.46-1.19-.4-1.23-.34-1.25-.29-1.27-.22-1.3-.16-1.31-.1-1.33-.03-1.35.04-1.36.1-1.33.16-1.31.22-1.3.29-1.27.34-1.25.41-1.22.45-1.2.52-1.17.56-1.14.62-1.11.66-1.07.72-1.05.76-1 .8-.97.85-.93.89-.89.93-.85.98-.8 1-.76 1.05-.71 1.07-.67 1.11-.61 1.14-.56 1.17-.51 1.2-.46 1.23-.4 1.25-.34 1.27-.29 1.29-.22 1.32-.16 1.33-.1 1.35-.03 1.35.04 1.33.1zm-5.36 14.89l-1.25.34-1.19.47-1.13.59-1.05.7-.98.79-.88.89-.8.98-.69 1.06-.58 1.13-.47 1.19-.34 1.25-.21 1.3-.07 1.34.08 1.34.21 1.3.35 1.24.47 1.19.58 1.13.7 1.05.8.98.89.89.98.79 1.05.69 1.13.59 1.2.46 1.24.34 1.3.21 1.34.07v-.12l1.33-.07 1.29-.21 1.23-.34 1.19-.46 1.12-.58 1.05-.68.97-.79.89-.88.79-.96.69-1.04.59-1.12.47-1.18.36-1.23.22-1.29.08-1.32v-.05l-.07-1.34-.21-1.29-.35-1.25-.47-1.19-.59-1.13-.69-1.05-.8-.98-.89-.89-.98-.79-1.06-.69-1.12-.58-1.2-.47-1.25-.34-1.29-.21-1.34-.07-1.34.07-1.3.22z" id="d"/><path d="M515.37 288.47l1.31.16 1.3.23 1.27.28 1.25.34 1.22.4 1.2.46 1.16.51 1.14.56 1.11.61 1.08.66 1.04.72 1.01.75.97.81.93.84.89.89.85.93.8.96.76 1.01.72 1.04.67 1.07.61 1.11.57 1.13.51 1.17.46 1.2.4 1.22.35 1.25.29 1.27.23 1.29.16 1.31.11 1.33.03 1.35v.04l-.03 1.36-.1 1.33-.16 1.31-.22 1.3-.28 1.27-.35 1.25-.4 1.23-.45 1.19-.51 1.17-.57 1.14-.61 1.11-.66 1.08-.72 1.05-.75 1-.81.97-.85.93-.89.89-.93.85-.96.81-1.01.76-1.04.71-1.08.67-1.11.62-1.14.56-1.17.51-1.19.46-1.23.4-1.25.35-1.27.28-1.29.23-1.32.16-1.33.1-1.35.04-1.35-.04-1.34-.09-1.31-.16-1.29-.23-1.28-.28-1.25-.34-1.22-.4-1.2-.46-1.17-.51-1.14-.56-1.11-.62-1.08-.66-1.04-.71-1.01-.76-.97-.81-.93-.84-.89-.89-.85-.93-.81-.97-.76-1.01-.71-1.04-.67-1.08-.61-1.1-.57-1.14-.51-1.17-.46-1.2-.4-1.23-.35-1.24-.28-1.28-.23-1.29-.16-1.32-.1-1.33-.03-1.35.03-1.35.1-1.33.16-1.32.22-1.29.28-1.27.35-1.25.4-1.23.45-1.2.51-1.17.57-1.14.61-1.11.66-1.08.72-1.04.76-1.01.8-.97.85-.93.89-.89.93-.85.96-.8 1.01-.76 1.04-.72 1.08-.66 1.11-.62 1.14-.57 1.17-.51 1.19-.46 1.23-.4 1.25-.34 1.27-.29 1.29-.22 1.32-.17 1.33-.1 1.35-.03 1.35.03 1.33.1zm-5.36 14.9l-1.25.34-1.19.47-1.13.59-1.05.7-.98.79-.88.89-.8.98-.69 1.06-.58 1.13-.47 1.19-.34 1.25-.21 1.3-.07 1.34.08 1.34.21 1.3.35 1.24.47 1.19.58 1.13.7 1.05.8.98.89.89.98.79 1.05.69 1.13.59 1.19.46 1.25.34 1.3.21 1.34.07v-.12l1.33-.07 1.29-.21 1.23-.34 1.19-.46 1.12-.58 1.05-.68.97-.79.88-.88.8-.96.69-1.04.59-1.12.47-1.18.36-1.23.22-1.29.08-1.32v-.05l-.07-1.34-.21-1.29-.35-1.25-.47-1.19-.59-1.13-.69-1.05-.8-.98-.89-.89-.98-.79-1.06-.69-1.12-.58-1.2-.47-1.25-.34-1.29-.21-1.34-.07-1.34.07-1.3.22z" id="e"/><path d="M386.14 286.29l.57.06.57.08.56.1.55.13.54.15.54.16.52.19.52.21.51.22.49.25.49.26.47.28.46.3.45.32.43.33.42.35.41.37.39.37.38.4.37.41.34.42.34.44.31.44.3.46.28.48.26.48.25.5.22.5.21.52.19.53.16.53.15.54.12.56.11.56.08.56.05.58.04.58.01.59v29.66l-.01.59-.04.58-.06.57-.08.57-.1.56-.13.55-.14.54-.17.54-.19.52-.2.52-.23.5-.24.5-.27.48-.28.47-.3.46-.31.45-.33.44-.35.42-.37.4-.37.4-.4.38-.41.36-.42.35-.43.33-.45.32-.46.29-.47.29-.49.26-.49.24-.51.23-.51.21-.53.18-.53.17-.54.15-.55.12-.56.1-.57.09-.57.05-.58.04-.59.01H254.45l-.58-.01-.58-.04-.58-.05-.56-.09-.56-.1-.55-.12-.55-.15-.53-.17-.53-.18-.51-.21-.51-.23-.49-.24-.49-.26-.47-.29-.46-.29-.45-.32-.43-.33-.42-.35-.41-.36-.39-.38-.38-.4-.37-.4-.34-.42-.33-.44-.32-.45-.3-.46-.28-.47-.26-.48-.25-.5-.22-.5-.21-.52-.19-.52-.16-.54-.15-.54-.12-.55-.11-.56-.08-.57-.06-.57-.04-.58-.01-.59V300.5l.01-.59.04-.58.06-.58.08-.56.1-.56.13-.56.14-.54.17-.53.18-.53.21-.52.23-.5.24-.5.26-.48.28-.48.3-.46.32-.44.33-.44.35-.42.36-.41.38-.4.39-.37.41-.37.42-.35.44-.33.45-.32.46-.3.47-.28.48-.26.5-.25.5-.22.52-.21.52-.19.54-.16.54-.15.56-.13.56-.1.56-.08.58-.06.58-.04.58-.01h130.52l.59.01.58.04zm-131.15 43.32h129.43v-28.58H254.99v28.58z" id="f"/><path d="M552.87 248.55l.85.09.83.11.82.16.81.18.8.21.79.25.77.27.76.3.74.34.73.36.71.38.7.41.67.44.66.47.64.48.62.52.6.53.58.56.56.58.53.6.51.62.49.64.47.65.43.68.42.7.38.71.36.72.33.75.31.76.27.77.25.79.21.79.18.82.15.82.12.83.09.85.05.85.02.86v91.86l-.02.86-.05.85-.09.84-.11.84-.16.82-.18.81-.21.8-.25.78-.27.77-.3.76-.34.74-.35.73-.39.71-.41.69-.44.68-.46.66-.49.64-.51.62-.54.6-.55.57-.58.56-.6.53-.62.51-.64.49-.66.47-.67.43-.7.42-.71.38-.72.36-.75.33-.75.31-.77.27-.79.24-.8.22-.81.18-.82.15-.83.12-.85.09-.85.05-.86.01h-10.73l-4.38 15.9-.16.56-.19.55-.19.54-.22.53-.23.52-.25.51-.26.51-.28.49-.3.48-.31.47-.32.45-.34.45-.35.43-.36.43-.38.41-.39.39-.4.39-.41.37-.43.36-.43.34-.45.33-.46.31-.46.3-.48.29-.49.27-.49.25-.5.24-.52.23-.52.2-.52.19-.54.18-.54.15-.55.14-.55.13-.56.1-.56.09-.57.06-.58.05-.58.03-.58.01h-23.62v16.49l-.02.68-.04.67-.06.66-.1.65-.12.64-.14.64-.17.62-.19.62-.22.6-.23.6-.26.58-.29.57-.3.55-.32.55-.34.53-.37.51-.38.5-.4.49-.42.47-.43.45-.46.43-.47.42-.48.4-.5.38-.52.37-.53.34-.54.32-.56.31-.57.28-.58.26-.59.24-.61.21-.61.19-.63.17-.63.15-.64.11-.66.1-.66.07-.66.04-.68.01h-38.84l-.68-.01-.67-.04-.66-.07-.65-.1-.64-.11-.64-.15-.62-.17-.62-.19-.6-.21-.59-.24-.59-.26-.57-.28-.55-.31-.55-.32-.53-.34-.51-.37-.5-.38-.49-.4-.47-.42-.45-.43-.43-.45-.42-.47-.4-.49-.38-.5-.37-.51-.34-.53-.32-.55-.31-.55-.28-.57-.26-.58-.24-.6-.21-.6-.19-.62-.17-.62-.14-.64-.12-.64-.1-.65-.07-.66-.04-.67-.01-.68v-16.49H315.67l-.02.01H314.99l-.02-.01h-.06l-.31-.02-.3-.04-.3-.04-.29-.06-.29-.07-.28-.08-.28-.09-.27-.11-.27-.11-.26-.12-.26-.13-.25-.14-.24-.15-.24-.16-.23-.17-.22-.18-.22-.18-.21-.2-.2-.2-.19-.21-.19-.21-.17-.22-.17-.23-.16-.24-.15-.24-.14-.25-.14-.25-.12-.26-.11-.27-.1-.26-.1-.28-.08-.28-.07-.28-.06-.29-.05-.29-.03-.29-.03-.3-.01-.3v-.3l.01-.31.02-.3.03-.3.05-.3.06-.29.07-.29.08-.28.09-.28.1-.27.12-.27.12-.26.13-.26.14-.25.15-.24.16-.24.17-.23.18-.22.18-.22.19-.21.21-.2.2-.19.22-.19.22-.17.23-.17.24-.16.24-.15.25-.15.25-.13.26-.12.26-.11.27-.1.28-.1.27-.08.29-.07.28-.06.29-.05.3-.04.29-.02.3-.01.31-.01.3.01h203.86l.08-.01.09-.01.08-.01.08-.01.08-.02.09-.02.08-.02.07-.03.08-.02.08-.03.08-.04.07-.03.07-.04.07-.04.08-.04.06-.04.07-.05.07-.05.06-.05.07-.05.06-.06.06-.05.05-.06.06-.06.05-.06.05-.07.05-.06.05-.07.05-.07.04-.07.04-.07.04-.08.04-.07.03-.08.03-.08.03-.08.03-.08.02-.08 3.3-11.98H114.59l3.27 11.98.03.08.02.08.03.08.03.08.04.08.03.07.04.08.04.07.05.07.04.07.05.07.05.06.05.07.06.06.05.06.06.06.06.05.06.06.06.05.07.05.06.05.07.05.07.04.07.04.07.04.08.04.07.03.08.04.07.03.08.02.08.03.08.02.08.02.08.02.09.01.08.01.08.01.09.01h161.41l.28.03.28.03.27.04.27.05.27.06.27.07.26.08.25.09.25.1.25.1.24.12.24.12.23.14.23.14.22.14.21.16.21.16.21.17.19.18.19.18.19.19.17.2.17.2.17.21.15.22.15.22.14.23.13.23.12.23.12.25.11.24.09.25.09.26.08.26.07.26.07.27.05.27.04.28.03.27.02.28.01.31v.3l-.01.3-.03.3-.04.29-.05.29-.06.29-.07.28-.08.28-.09.28-.1.26-.12.27-.12.26-.13.25-.14.25-.15.24-.16.24-.17.23-.18.22-.18.21-.2.21-.2.2-.21.2-.21.18-.23.18-.23.17-.23.16-.25.15-.25.14-.25.13-.27.12-.26.11-.28.11-.28.09-.28.08-.29.07-.29.06-.3.04-.3.04-.3.02h-66.32v16.49l-.01.68-.04.67-.07.66-.1.65-.11.64-.15.64-.17.62-.19.62-.21.6-.24.6-.26.58-.28.57-.31.55-.32.55-.34.53-.37.51-.38.5-.4.49-.42.47-.43.45-.45.43-.47.42-.49.4-.5.38-.51.37-.53.34-.55.32-.55.31-.57.28-.59.26-.59.24-.6.21-.62.19-.62.17-.64.15-.64.11-.65.1-.66.07-.67.04-.68.01h-38.82l-.67-.01-.67-.04-.66-.07-.65-.1-.65-.11-.63-.15-.63-.17-.61-.19-.61-.21-.59-.24-.58-.26-.57-.28-.56-.3-.54-.33-.53-.34-.52-.36-.5-.39-.49-.4-.47-.41-.45-.44-.44-.45-.42-.47-.4-.49-.38-.5-.36-.51-.35-.53-.32-.55-.3-.55-.29-.57-.26-.58-.24-.6-.21-.6-.19-.62-.17-.62-.15-.64-.12-.64-.09-.65-.07-.66-.04-.67-.02-.68v-16.49h-23.39l-.58-.01-.58-.03-.58-.05-.57-.06-.56-.09-.56-.1-.55-.13-.55-.14-.54-.15-.54-.18-.52-.19-.52-.2-.51-.23-.51-.24-.49-.25-.49-.27-.47-.29-.47-.3-.46-.31-.45-.33-.43-.34-.43-.36-.41-.37-.4-.39-.39-.39-.38-.41-.36-.43-.35-.43-.34-.45-.32-.45-.31-.47-.3-.48-.27-.49-.27-.51-.25-.51-.23-.52-.21-.53-.2-.54-.19-.55-.16-.56-4.38-15.9H88.82l-.86-.01-.85-.05-.85-.09-.83-.12-.82-.15-.81-.18-.8-.22-.79-.24-.77-.27-.75-.31-.75-.33-.72-.36-.71-.38-.7-.42-.67-.43-.66-.47-.64-.49-.62-.51-.6-.53-.58-.56-.55-.57-.54-.6-.51-.62-.49-.64-.46-.66-.44-.68-.41-.69-.39-.71-.35-.73-.34-.74-.3-.76-.27-.77-.25-.78-.21-.8-.18-.81-.16-.82-.11-.84-.09-.84-.05-.85-.02-.86V269.4l.02-.86.05-.85.09-.85.11-.83.16-.82.18-.81.21-.8.25-.79.27-.77.3-.76.33-.74.36-.73.39-.71.41-.69.44-.68.46-.66.49-.64.51-.62.53-.6.56-.57.58-.56.6-.54.62-.51.64-.49.65-.46.68-.44.69-.41.71-.39.73-.36.74-.33.76-.3.77-.28.79-.24.8-.22.81-.18.82-.15.83-.12.85-.09.85-.05.86-.02h462.34l.86.02.85.05zM158.44 427.27v.14l.02.11.02.11.03.11.03.1.04.1.05.1.06.09.06.09.06.08.07.08.08.07.08.07.08.06.09.06.1.05.1.05.1.04.1.03.11.03.11.01.11.01.11.01h38.82l.12-.01.11-.01.11-.02.1-.03.11-.03.1-.04.09-.05.1-.05.09-.06.08-.06.08-.07.08-.08.07-.08.06-.08.06-.09.05-.09.05-.1.04-.1.03-.11.03-.1.02-.11.01-.11.01-.12v-16.49h-42.03v16.49zm280.54 0v.12l.02.11.02.11.02.1.04.11.04.1.04.1.06.09.06.09.06.08.07.08.08.08.08.07.08.06.09.06.09.05.1.05.1.04.1.03.11.03.11.02.11.01.11.01h38.78l.11-.01.11-.01.11-.02.11-.03.1-.03.1-.04.1-.05.09-.05.09-.06.09-.06.08-.07.07-.08.07-.08.07-.08.05-.09.06-.09.04-.1.04-.1.04-.11.02-.1.02-.11.02-.11v-16.61h-41.96v16.49zM88.32 263.29l-.25.02-.24.04-.24.04-.24.06-.23.06-.23.07-.23.09-.22.08-.22.1-.21.11-.21.11-.2.12-.2.13-.19.14-.19.14-.18.15-.17.16-.17.16-.17.17-.15.18-.15.18-.14.19-.14.19-.13.2-.12.2-.11.21-.11.21-.09.22-.09.22-.08.23-.07.23-.07.23-.05.24-.04.24-.04.24-.02.25-.02.25v92.36l.02.25.02.24.04.25.04.24.05.24.07.23.07.23.08.23.09.22.09.22.11.21.11.21.12.2.13.2.14.19.14.19.15.18.15.18.17.17.17.16.17.16.18.15.19.14.19.14.2.12.2.13.21.11.21.11.22.09.22.09.23.08.23.08.23.06.24.05.24.05.24.03.25.03.25.02h462.84l.25-.02.25-.03.24-.03.24-.05.24-.05.23-.06.23-.08.23-.08.22-.09.22-.09.21-.11.21-.11.2-.12.2-.13.19-.14.19-.14.18-.15.18-.16.17-.16.16-.17.16-.18.15-.18.14-.19.14-.19.13-.2.12-.2.11-.21.11-.21.09-.22.09-.22.08-.23.08-.23.06-.23.05-.24.05-.24.03-.24.03-.25.02-.25v-92.36l-.02-.25-.03-.25-.03-.24-.05-.24-.05-.24-.06-.23-.08-.23-.08-.23-.09-.22-.09-.22-.11-.21-.11-.21-.12-.2-.13-.2-.14-.2-.14-.18-.15-.18-.16-.18-.16-.17-.17-.16-.18-.16-.18-.15-.19-.14-.19-.14-.2-.13-.2-.12-.21-.11-.21-.11-.22-.1-.22-.08-.23-.09-.23-.07-.23-.06-.24-.06-.24-.04-.24-.04-.25-.02-.25-.02H88.57l-.25.02z" id="g"/><path d="M96.24 410.14h456.89v67.02H96.24v-67.02z" id="h"/></defs><use xlink:href="#a" fill="#a75cb7"/><use xlink:href="#a" fill="none"/><use xlink:href="#b" fill="#fff"/><use xlink:href="#b" fill="none"/><use xlink:href="#c" fill="#fff"/><use xlink:href="#c" fill="none"/><use xlink:href="#d" fill="#fff"/><use xlink:href="#d" fill="none"/><use xlink:href="#e" fill="#fff"/><use xlink:href="#e" fill="none"/><use xlink:href="#f" fill="#fff"/><use xlink:href="#f" fill="none"/><use xlink:href="#g" fill="#fff"/><use xlink:href="#g" fill="none"/><use xlink:href="#h" fill="#a75cb7"/></svg>