<svg xmlns="http://www.w3.org/2000/svg" viewBox="0 0 161.38 161.38"><defs><style>.cls-1{fill:#ab6359;}.cls-2{fill:#fff;}</style></defs><title>Asset 7</title><g id="Layer_1-2"><circle class="cls-1" cx="80.69" cy="80.69" r="80.69"/><path class="cls-2" d="M106.88 118H86.56v8.3h20.32a24.88 24.88 0 0 0 0-49.76H54.5a16.58 16.58 0 1 1 0-33.16h21v-8.3h-21a24.88 24.88 0 0 0 0 49.76h52.38a16.58 16.58 0 0 1 0 33.16z"/><path class="cls-1" d="M106.88 128.91H83.94v-13.53h22.94a14 14 0 1 0 0-27.92H54.5a27.5 27.5 0 0 1 0-55h23.61V46H54.5a14 14 0 1 0 0 27.92h52.38a27.5 27.5 0 1 1 0 55zm-17.7-5.23h17.7a22.27 22.27 0 0 0 0-44.53H54.5a19.2 19.2 0 1 1 0-38.39h18.37V37.7H54.5a22.26 22.26 0 1 0 0 44.52h52.38a19.2 19.2 0 1 1 0 38.39h-17.7z"/><path class="cls-2" d="M77.93 31.88l-5.81 3.77h-2v7.15h2l5.81 3.76a2.77 2.77 0 0 0 1.51.41h4.83v-2.28h7.33c1.2 0 2.18-.66 2.18-1.48v-8c0-.81-1-1.47-2.18-1.47h-7.33v-2.26h-4.83a2.86 2.86 0 0 0-1.51.4zM90.3 35c1.16 0 2.11.52 2.11 1.15v6.15c0 .63-1 1.14-2.11 1.14h-6V35zM82.29 129.49l5.82-3.76h2v-7.16h-2l-5.82-3.76a2.8 2.8 0 0 0-1.5-.41H76v2.28h-7.37c-1.21 0-2.18.66-2.18 1.48v8c0 .82 1 1.48 2.18 1.48H76v2.28h4.84a2.8 2.8 0 0 0 1.45-.43zm-12.36-3.12c-1.16 0-2.11-.51-2.11-1.14v-6.16c0-.63 1-1.14 2.11-1.14h6v8.44z"/><circle class="cls-1" cx="80.69" cy="80.69" r="12.51"/><path class="cls-2" d="M80.69 94.94a14.25 14.25 0 1 1 10.08-4.17 14.21 14.21 0 0 1-10.08 4.17zm0-25A10.76 10.76 0 1 0 88.3 88.3a10.76 10.76 0 0 0-7.61-18.37z"/></g></svg>